<svg width="400" height="400" viewBox="0 0 400 400" fill="none" xmlns="http://www.w3.org/2000/svg">
<g filter="url(#filter0_d)">
<path fill-rule="evenodd" clip-rule="evenodd" d="M274.5 162.5H283.875C299.375 162.5 312 175.113 312 190.625V321.875C312 337.388 299.375 350 283.875 350H115.125C99.625 350 87 337.388 87 321.875V190.625C87 175.113 99.625 162.5 115.125 162.5H124.5V125C124.5 83.6375 158.137 50 199.5 50C240.863 50 274.5 83.6375 274.5 125V162.5ZM199.5 75C171.925 75 149.5 97.425 149.5 125V162.5H249.5V125C249.5 97.425 227.075 75 199.5 75ZM252.112 260.225C250.288 263.103 249.557 264.535 252.112 267.755C252.303 268.02 253.271 268.989 254.734 270.454C260.916 276.647 275.941 291.696 278.597 299.811C280.033 304.582 277.537 307 272.613 307H255.338C250.728 307 248.403 304.467 243.371 298.986C241.231 296.655 238.602 293.791 235.1 290.361C224.829 280.668 220.432 279.407 217.877 279.407C213.197 279.407 213.209 280.715 213.319 292.873C213.338 295.03 213.361 297.528 213.361 300.422C213.361 304.582 212.018 307 201.017 307C182.714 307 162.595 296.111 148.309 276.016C126.873 246.576 121 224.292 121 219.81C121 217.274 121.994 215.007 126.925 215.007H144.207C148.638 215.007 150.303 216.899 152.009 221.585C160.455 245.735 174.709 266.835 180.581 266.835C182.787 266.835 183.781 265.83 183.781 260.363V235.411C183.382 228.302 180.852 225.228 178.978 222.952C177.821 221.546 176.914 220.444 176.914 218.884C176.914 217.011 178.553 215 181.312 215H208.476C212.116 215 213.348 216.925 213.348 221.236V254.783C213.348 258.378 215.026 259.64 216.106 259.64C218.298 259.64 220.155 258.378 224.171 254.442C236.614 240.819 245.41 219.804 245.41 219.804C246.496 217.267 248.524 215 252.921 215H270.197C275.417 215 276.497 217.642 275.417 221.236L275.404 221.243C273.232 231.107 252.145 260.192 252.112 260.225Z" fill="url(#paint0_linear)"/>
</g>
<defs>
<filter id="filter0_d" x="-4" y="0" width="408" height="408" filterUnits="userSpaceOnUse" color-interpolation-filters="sRGB">
<feFlood flood-opacity="0" result="BackgroundImageFix"/>
<feColorMatrix in="SourceAlpha" type="matrix" values="0 0 0 0 0 0 0 0 0 0 0 0 0 0 0 0 0 0 127 0"/>
<feOffset dy="4"/>
<feGaussianBlur stdDeviation="2"/>
<feColorMatrix type="matrix" values="0 0 0 0 0 0 0 0 0 0 0 0 0 0 0 0 0 0 0.25 0"/>
<feBlend mode="normal" in2="BackgroundImageFix" result="effect1_dropShadow"/>
<feBlend mode="normal" in="SourceGraphic" in2="effect1_dropShadow" result="shape"/>
</filter>
<linearGradient id="paint0_linear" x1="199.5" y1="50" x2="199.5" y2="350" gradientUnits="userSpaceOnUse">
<stop stop-color="#6536AE"/>
<stop offset="1" stop-color="#CE4CF0"/>
</linearGradient>
</defs>
</svg>
